HIERARCHY
ROOT ui
{
	 OFFSET 0 0 0
	 CHANNELS 3 XPosition YPosition Z Position
	 EndSite
	 {
	 OFFSET 0 -1 0
	 }
}
ROOT li
{
	 OFFSET 0 0 0
	 CHANNELS 3 XPosition YPosition Z Position
	 EndSite
	 {
	 OFFSET 0 -1 0
	 }
}
ROOT ul
{
	 OFFSET 0 0 0
	 CHANNELS 3 XPosition YPosition Z Position
	 EndSite
	 {
	 OFFSET 0 -1 0
	 }
}
ROOT ll
{
	 OFFSET 0 0 0
	 CHANNELS 3 XPosition YPosition Z Position
	 EndSite
	 {
	 OFFSET 0 -1 0
	 }
}
ROOT tt
{
	 OFFSET 0 0 0
	 CHANNELS 3 XPosition YPosition Z Position
	 EndSite
	 {
	 OFFSET 0 -1 0
	 }
}
ROOT tb
{
	 OFFSET 0 0 0
	 CHANNELS 3 XPosition YPosition Z Position
	 EndSite
	 {
	 OFFSET 0 -1 0
	 }
}
ROOT td
{
	 OFFSET 0 0 0
	 CHANNELS 3 XPosition YPosition Z Position
	 EndSite
	 {
	 OFFSET 0 -1 0
	 }
}
ROOT v
{
	 OFFSET 0 0 0
	 CHANNELS 3 XPosition YPosition Z Position
	 EndSite
	 {
	 OFFSET 0 -1 0
	 }
}
ROOT bn
{
	 OFFSET 0 0 0
	 CHANNELS 3 XPosition YPosition Z Position
	 EndSite
	 {
	 OFFSET 0 -1 0
	 }
}
MOTION
Frames: 19
Frame Time: 0.002
-0.0384351806640625	0.0012567509412765502	0		0.5678021240234375	-2.43996728515625	0		-0.7823731079101562	0.4493799438476562	0		-0.42591323852539065	-2.395136962890625	0		1.9818267822265625	-1.1316539306640625	0		3.416033203125	-0.5244960327148438	0		4.78186669921875	-0.11687291717529297	0		5.882392578125	0.36990884399414065	0		-0.48835772705078123	5.834486328125	0		
0.040412696838378906	-5.570600032806396E-4	0		0.5687132568359375	-2.440233154296875	0		-0.7864921875	0.454117919921875	0		-0.4450163269042969	-2.3972880859375	0		1.9667432861328125	-1.1267789306640625	0		3.441791259765625	-0.5408692626953125	0		4.7876708984375	-0.12507877349853516	0		5.8780703125	0.3904981689453125	0		-0.5226649780273438	5.82943701171875	0		
-0.03678918838500977	7.145500183105469E-4	0		0.5715462646484375	-2.43750390625	0		-0.7807413330078125	0.4488140869140625	0		-0.43614285278320314	-2.388609619140625	0		1.9675433349609375	-1.1270225830078124	0		3.411750732421875	-0.5168875122070312	0		4.79250244140625	-0.11932334899902344	0		5.894310546875	0.38469085693359373	0		-0.45875421142578127	5.85473779296875	0		
-0.03204832077026367	0.004441381931304932	0		0.5752785034179687	-2.4337724609375	0		-0.7799645385742188	0.45757083129882814	0		-0.4393350219726562	-2.373826904296875	0		1.9682529296875	-1.127275390625	0		3.4262705078125	-0.5452406616210937	0		4.7891748046875	-0.12555868530273437	0		5.897017578125	0.40495306396484376	0		-0.45801983642578126	5.85449365234375	0		
-0.035442493438720704	2.3989300429821015E-4	0		0.5728440551757813	-2.43799072265625	0		-0.7943510131835938	0.4534571533203125	0		-0.4047555847167969	-2.3762822265625	0		1.968867431640625	-1.1275374755859375	0		3.419031982421875	-0.5254722900390625	0		4.7898056640625	-0.12586725616455077	0		5.892544921875	0.4286888427734375	0		-0.4523863220214844	5.84023779296875	0		
-0.034887035369873046	2.6978999376296997E-5	0		0.5713073120117188	-2.44120751953125	0		-0.79472021484375	0.462273193359375	0		-0.4342209777832031	-2.36927783203125	0		1.98535498046875	-1.1329193115234375	0		3.41251025390625	-0.5347382202148437	0		4.77833740234375	-0.12913912963867188	0		5.8971611328125	0.4071860961914063	0		-0.48569989013671877	5.834271484375	0		
-0.03741844177246094	-0.0031499791145324705	0		0.57169384765625	-2.441430908203125	0		-0.7883016967773437	0.4490660705566406	0		-0.42980377197265623	-2.365486572265625	0		1.967803955078125	-1.1320775146484374	0		3.384984619140625	-0.5338870849609375	0		4.78780712890625	-0.13160191345214844	0		5.8932890625	0.42724005126953124	0		-0.519998779296875	5.82933544921875	0		
0.047063575744628904	0.0020795519351959227	0		0.556982666015625	-2.444542724609375	0		-0.7828070678710938	0.4528884582519531	0		-0.4084697570800781	-2.362795654296875	0		1.9702125244140625	-1.1283841552734375	0		3.437291748046875	-0.5496197509765625	0		4.79622119140625	-0.13510382080078126	0		5.91148046875	0.4416275634765625	0		-0.45407308959960935	5.8527236328125	0		
0.04748073196411133	0.0019040219783782958	0		0.6152438354492188	-2.444160888671875	0		-0.7823601684570313	0.4527677307128906	0		-0.4141169738769531	-2.34989892578125	0		1.9735760498046875	-1.1257078857421876	0		3.420835205078125	-0.52689990234375	0		4.7867421875	-0.11952294158935547	0		5.926037109375	0.4386739501953125	0		-0.45426235961914063	5.853587890625	0		
0.047889034271240236	0.0017401479482650757	0		0.5745010375976562	-2.439076171875	0		-0.7968812255859375	0.4577743835449219	0		-0.4118750305175781	-2.348041748046875	0		1.9808905029296875	-1.127069580078125	0		3.406089111328125	-0.5432154541015625	0		4.7900556640625	-0.1320717315673828	0		5.9171787109375	0.47928146362304686	0		-0.453397705078125	5.854462890625	0		
0.04526559829711914	-0.0023914909362792967	0		0.5726737060546875	-2.4422607421875	0		-0.7964364013671875	0.45769406127929685	0		-0.39971649169921875	-2.35424169921875	0		1.9562637939453125	-1.1182099609375	0		3.400498046875	-0.5366161499023437	0		4.78045703125	-0.1315631103515625	0		5.92098291015625	0.46076806640625	0		-0.4875213317871094	5.84960546875	0		
-0.03232763290405274	-9.652029871940613E-4	0		0.5458618774414062	-2.43925732421875	0		-0.7959953002929687	0.45763009643554686	0		-0.39550616455078125	-2.349372802734375	0		1.9625037841796875	-1.1255791015625	0		3.41484423828125	-0.5371812133789062	0		4.780841796875	-0.13215699768066405	0		5.924880859375	0.475050537109375	0		-0.4865679016113281	5.84951220703125	0		
0.0460413703918457	-0.0026712620258331297	0		0.5839237060546875	-2.448725830078125	0		-0.7955699462890625	0.45758016967773435	0		-0.4552545166015625	-2.334019287109375	0		1.9717376708984375	-1.129977294921875	0		3.41022021484375	-0.5306241455078125	0		4.78120703125	-0.13277626037597656	0		5.92735546875	0.4944881896972656	0		-0.4224010314941406	5.874962890625	0		
-0.027573837280273437	0.0027566020488739014	0		0.558029296875	-2.445716552734375	0		-0.7951754150390625	0.4575421142578125	0		-0.4171534423828125	-2.333379638671875	0		1.9600672607421874	-1.1162227783203125	0		3.396441162109375	-0.540008544921875	0		4.7815380859375	-0.1334134979248047	0		5.930521484375	0.5138695068359375	0		-0.4214244689941406	5.874884765625	0		
-0.03130696487426758	-0.001326248049736023	0		0.5730772705078125	-2.443009521484375	0		-0.79482763671875	0.45751382446289063	0		-0.4620302429199219	-2.32210693359375	0		1.957217529296875	-1.119533935546875	0		3.418723388671875	-0.5346702270507813	0		4.7818203125	-0.13406088256835938	0		5.937150390625	0.5106688842773438	0		-0.42047528076171875	5.87481494140625	0		
-0.03107101821899414	-0.0014328529834747314	0		0.5730374755859375	-2.4431845703125	0		-0.8046015014648438	0.44957110595703126	0		-0.39209716796875	-2.327706787109375	0		1.969373291015625	-1.113958251953125	0		3.38293896484375	-0.5298877563476563	0		4.77899462890625	-0.14068753051757812	0		5.9331083984375	0.5301464233398437	0		-0.42056808471679685	5.875759765625	0		
-0.004903263092041016	-0.0017378300428390503	0		0.5778273315429687	-2.456392333984375	0		-0.7993506469726562	0.45351858520507815	0		-0.44717453002929686	-2.32533447265625	0		1.95142431640625	-1.1131439208984375	0		3.405093994140625	-0.5245479736328125	0		4.77421044921875	-0.133293701171875	0		5.94036474609375	0.5286566162109375	0		-0.45278814697265624	5.868962890625	0		
-0.026769990921020507	0.0023394320011138918	0		0.5557098388671875	-2.44938037109375	0		-0.794167236328125	0.45746957397460936	0		-0.44127825927734377	-2.318430908203125	0		1.9632886962890626	-1.1275560302734375	0		3.400040771484375	-0.5369872436523437	0		4.76328076171875	-0.13583868408203126	0		5.94275146484375	0.5791812133789063	0		-0.3868333740234375	5.89339599609375	0		
-0.02673213195800781	0.002249440908432007	0		0.5834795532226562	-2.449760009765625	0		-0.7940797729492187	0.45746319580078126	0		-0.434445068359375	-2.312532470703125	0		1.95131689453125	-1.113766357421875	0		3.397197509765625	-0.5154271850585938	0		4.77736767578125	-0.12856407165527345	0		5.94991064453125	0.5760183715820313	0		-0.3881372375488281	5.895361328125	0		
